<?xml version="1.0" standalone="no"?> <!DOCTYPE svg PUBLIC "-//W3C//DTD SVG 1.0//EN" "http://www.w3.org/TR/2001/REC-SVG-20010904/DTD/svg10.dtd" > <svg xmlns="http://www.w3.org/2000/svg" width="100%" height="100%">
<defs >
<font id="ICBMSS25" horiz-adv-x="1112" ><font-face
    font-family="ICBM SS-25"
    units-per-em="2048"
    panose-1="2 0 0 0 0 0 0 0 0 0"
    ascent="1854"
    descent="-434"
    alphabetic="0" />
<missing-glyph horiz-adv-x="1536" d="M256 0V1280H1280V0H256ZM288 32H1248V1248H288V32Z" />
<glyph unicode=" " glyph-name="space" horiz-adv-x="569" />
<glyph unicode="!" glyph-name="exclam" horiz-adv-x="643" d="M46 1497L407 1486L397 1317L407 1210L386 1009L354 1189L280 1253V966L301 892L375 934L365 733Q349 651 344 541Q251 510 142 510Q94 584 89 679L46 1465H36L46 1497ZM142 679L153 616L142 595L195
605Q184 652 142 679ZM46 350L216 340L322 255Q365 210 397 149V11L365 0H184Q114 3 36 21Q46 96 46 191V308L36 319L46 350ZM322 350L397 340L386 244L322 350Z" />
<glyph unicode="&quot;" glyph-name="quotedbl" horiz-adv-x="988" d="M49 1495L312 1484L343 1495L364 1463L354 1369L322 1474Q285 1442 270 1390L364 1295L322 1085Q318 1019 301 948Q278 890 207 885L59 896L7 1306L17 1463L49 1495ZM438 1495H701Q732 1419
785 1337L753 1117Q742 1015 711 896L511 885L480 906L448 1138Q444 1188 427 1243V1463L438 1495ZM764 1484L785 1432L764 1421V1484ZM59 1411L49 1337L80 1358Q80 1388 59 1411ZM154 1095Q156 1073 175 1053Q174 1076 154 1095Z" />
<glyph unicode="#" glyph-name="numbersign" horiz-adv-x="1139" />
<glyph unicode="$" glyph-name="dollar" horiz-adv-x="1139" />
<glyph unicode="%" glyph-name="percent" horiz-adv-x="1821" />
<glyph unicode="&amp;" glyph-name="ampersand" horiz-adv-x="1366" />
<glyph unicode="&apos;" glyph-name="quotesingle" horiz-adv-x="563" d="M49 1495L312 1484L343 1495L364 1463L354 1369L322 1474Q285 1442 270 1390L364 1295L322 1085Q318 1019 301 948Q278 890 207 885L59 896L7 1306L17 1463L49 1495ZM59 1411L49 1337L80
1358Q80 1388 59 1411ZM154 1095Q156 1073 175 1053Q174 1076 154 1095Z" />
<glyph unicode="(" glyph-name="parenleft" horiz-adv-x="682" />
<glyph unicode=")" glyph-name="parenright" horiz-adv-x="682" />
<glyph unicode="*" glyph-name="asterisk" horiz-adv-x="682" />
<glyph unicode="+" glyph-name="plus" horiz-adv-x="1196" />
<glyph unicode="," glyph-name="comma" horiz-adv-x="556" d="M18 359H92L82 296L124 275L145 306L134 359H345L366 327L345 264L282 -73L250 -179L187 -221L8 -242V327L18 359Z" />
<glyph unicode="-" glyph-name="hyphen" horiz-adv-x="737" d="M62 913H513L528 870V586L435 575H0L-15 586L0 617V796L62 913ZM311 796Q270 751 249 691L311 659L357 702Q347 749 311 796ZM140 702Q145 688 171 680Q168 695 140 702Z" />
<glyph unicode="." glyph-name="period" horiz-adv-x="749" d="M38 340H344L354 298V13L291 3H-4L-14 13L-4 45V224L38 340ZM207 224Q179 179 164 119L207 87L238 129Q231 177 207 224ZM91 129Q94 116 112 108Q109 122 91 129Z" />
<glyph unicode="/" glyph-name="slash" horiz-adv-x="623" d="M252 1797L463 1747L-27 -296L-238 -245L252 1797Z" />
<glyph unicode="0" glyph-name="zero" horiz-adv-x="1239" d="M533 1504L672 1493L779 1451Q819 1414 843 1355L789 1259Q760 1217 736 1163Q707 1135 661 1131L576 1152L544 1141L437 1120Q416 1090 416 1056L373 949L352 821L373 437L267 245Q248 195 213 149L139
213L43 416L11 533L0 821L11 960Q24 1010 53 1067L43 1099L64 1184Q92 1208 107 1248L160 1344L341 1461Q389 1478 448 1483L512 1461L533 1504ZM907 1344L992 1259L1045 1163L1120 928V875L1131 864L1109 821L1120 811L1131 715L1109 683L1120 587L1099 469L1056
352Q1042 294 1013 235L949 149L864 75L757 21L629 0H469L352 43Q313 67 288 117L395 320L416 384L469 363L555 352L576 363H608Q651 388 693 427Q729 469 747 533L768 661L757 971L736 1045L768 1077L832 1067Q850 1068 853 1088Q822 1123 821 1184Q838 1222 875
1248L864 1195Q893 1198 917 1216Q907 1274 907 1344ZM864 1024Q853 970 821 907Q849 863 907 843Q929 896 939 960Q929 1015 864 1024ZM128 928Q131 914 149 907Q147 921 128 928ZM96 576Q110 546 139 523Q128 554 96 576ZM267 480L256 384Q269 359 299 341L320
459L267 480ZM853 384Q856 370 875 363Q872 377 853 384ZM523 288L501 235L512 213L544 203L565 288H523ZM320 139H341L331 160L320 139Z" />
<glyph unicode="1" glyph-name="one" horiz-adv-x="557" d="M342 1493Q365 1490 384 1472V43L374 0H192L171 53Q141 136 54 192L22 341V405Q42 382 75 363L107 427Q39 470 22 533V1301L182 1397Q255 1432 342 1493ZM267 1120L256 1045Q280 1065 299 1099L267 1120ZM214
928Q217 914 235 907Q233 921 214 928ZM139 704L128 629Q130 611 150 608L171 683L139 704ZM267 704L246 651L256 629L310 619Q298 661 267 704ZM342 640Q345 626 363 619Q361 633 342 640Z" />
<glyph unicode="2" glyph-name="two" horiz-adv-x="1256" d="M399 1504H559L580 1493Q659 1484 740 1461Q800 1432 857 1387Q847 1330 793 1280L697 1184L655 1131L580 1163L463 1173L420 1152Q389 1174 345 1184L313 1195V1163Q335 1141 367 1131Q350 1100 335
1056Q299 989 218 981H58L36 992Q10 1064 4 1141L47 1280Q82 1332 132 1387Q183 1426 250 1461L399 1504ZM388 1408Q359 1385 356 1355Q384 1359 409 1376Q406 1397 388 1408ZM911 1301Q962 1266 1007 1216Q1031 1160 1049 1088L1071 981L1017 811L953 693L836
576Q803 598 751 608L793 555Q769 496 729 437L409 53Q360 18 292 0H122Q56 0 -6 32L79 96Q94 142 132 181Q200 186 271 203Q300 236 303 288L196 224Q173 228 164 256L207 309Q256 333 271 395L644 896Q682 938 719 992L708 1088L751 1120L911 1301ZM879 1184Q890
1143 921 1109L964 1077L985 1120L1007 1184Q991 1176 985 1152Q937 1159 879 1184ZM793 1024Q797 1010 815 1003Q812 1017 793 1024ZM985 896Q989 882 1007 875Q1004 889 985 896ZM527 544L505 491L516 469L548 459L569 544H527ZM729 341L825 331L857 341Q921
339 985 320L1081 341L1092 213L1081 75L1092 11L1028 0Q1013 29 985 53V11L708 0Q664 21 633 64L548 0Q502 2 473 32L601 181Q636 215 687 245Q701 292 729 341ZM943 245V149L964 224Q962 238 943 245ZM985 245Q990 221 1007 203Q1006 226 985 245Z" />
<glyph unicode="3" glyph-name="three" horiz-adv-x="1273" d="M457 1504L543 1493V1365L511 1344L521 1173L479 1163Q408 1105 340 1024H212L127 1035H95L20 1056L41 1216Q76 1293 137 1376Q213 1436 319 1472L393 1493L425 1483L457 1461L447 1493L457 1504ZM639
1504L777 1493L767 1440L735 1397Q764 1382 788 1355L841 1483L980 1419L1076 1312L1129 1163L1140 971L1033 693Q981 656 927 597L948 523Q972 539 1012 544Q978 490 948 416L1033 427Q1033 397 1054 363L1118 299L1097 235Q1063 178 1012 117Q953 101 905 53L756
0H628V288Q671 341 745 373Q767 442 767 523Q705 560 628 587V917L692 928Q740 962 809 971Q829 942 863 917L895 971L884 1131H916V1141Q892 1169 852 1184L841 1120V1024Q802 1037 777 1077Q730 1129 660 1163Q629 1237 628 1333L639 1504ZM1086 661L1118 619L1033
576L1086 661ZM777 608Q780 594 799 587Q796 601 777 608ZM927 512Q930 498 948 491Q945 505 927 512ZM873 480Q876 466 895 459Q892 473 873 480ZM265 469Q297 421 308 363L329 331L361 373Q406 372 447 352L543 320V235L532 213L543 203V107L500 96L543 32Q494
8 436 0L319 21L223 64L148 128Q116 159 84 203L41 299L31 427L148 459H265V469ZM148 384L137 352L169 331L180 373L148 384ZM393 309L383 235L415 256Q414 285 393 309Z" />
<glyph unicode="4" glyph-name="four" horiz-adv-x="1126" d="M653 1502L811 1491V1153Q784 1067 727 984Q695 910 642 825L378 349L-13 338Q1 370 29 402Q57 479 113 561L653 1502ZM600 1185Q569 1138 526 1089L515 1005L526 973L536 889L526 867L473 836L547
814L568 857Q608 880 642 920L621 1058Q620 1121 600 1185ZM452 1121L409 1026Q428 997 462 973L473 1089Q469 1111 452 1121ZM759 867H928L960 846L949 635Q913 567 896 476L1034 529L1023 571L1044 688H1108L1097 434L1108 402V360L1076 338L1044 360L970 338L960
264V32Q867 1 748 0L600 11V275L610 317Q554 332 483 338L505 413L759 867ZM737 233L716 169L759 148L769 222L737 233Z" />
<glyph unicode="5" glyph-name="five" horiz-adv-x="1140" d="M5 1502H322L354 1491Q352 1418 333 1333L354 1185V1005L513 994L661 963L777 910L862 814L926 698L957 561V413L947 391Q937 327 915 254L851 138L756 63L629 11L502 0V53L545 21L576 63L587 159L555
169L545 159L502 233V338Q528 342 555 360Q591 368 619 402L598 539Q574 593 534 645Q459 656 365 656L26 666Q4 737 -5 814V1470L5 1502ZM449 1491H873L947 1481V1174L936 1142H513L439 1153V1460L449 1491ZM185 1439V1364L248 1386L185 1439ZM79 1248Q85 1219
111 1195Q105 1224 79 1248ZM143 1026Q143 983 174 941Q171 985 143 1026ZM471 910Q475 889 492 878Q488 899 471 910ZM121 836Q123 770 185 762Q173 806 121 836ZM640 613Q643 600 661 592Q659 606 640 613ZM777 476L756 402L767 370H830L851 423L777 476ZM217
465Q310 456 354 360L418 328V180Q392 107 386 21L344 0L238 32Q165 60 90 127Q43 193 5 286L-16 434L164 455L195 434L217 465ZM534 296Q556 248 598 212Q576 260 534 296ZM703 296Q706 282 724 275Q722 289 703 296Z" />
<glyph unicode="6" glyph-name="six" horiz-adv-x="1212" d="M439 1491H609Q665 1478 704 1417Q728 1469 788 1491H873L852 1428L661 1111L863 984L905 931L863 899L704 740L566 762L429 740Q391 705 355 656L323 518L355 434L333 402L143 201L80 243L27 360L5
508L16 656L48 793L175 1005Q193 1053 249 1068L302 1111L270 1121L228 1100L238 1142L270 1174L439 1491ZM587 1449Q596 1421 619 1396Q612 1425 587 1449ZM344 1259L323 1206L365 1238Q362 1248 344 1259ZM513 1089Q514 1038 535 994L545 1015L535 1068Q532 1082
513 1089ZM630 963L545 910L630 899L672 878Q667 921 630 963ZM958 889L1042 825L1095 592L1106 465L1042 254L989 159L915 95L820 42L714 11L640 74L619 0H471L355 21L259 74L196 148L333 296Q364 328 408 360L513 328L640 349L725 402Q750 440 788 476L873 465Q898
503 937 539Q935 600 873 613L810 539L757 592L736 666L894 814L958 889ZM683 867L714 846Q706 862 683 867ZM101 846Q105 825 122 814Q118 836 101 846ZM397 804Q400 790 418 783Q416 797 397 804ZM894 677Q897 663 915 656Q913 670 894 677ZM259 613Q261 591
281 571Q280 594 259 613ZM1032 550Q1035 536 1053 529Q1051 543 1032 550ZM376 264L355 116H418L429 243L376 264ZM799 264L788 222L820 212L831 243L799 264Z" />
<glyph unicode="7" glyph-name="seven" horiz-adv-x="1188" d="M-12 1501H307L402 1491H434V1501H690Q687 1476 669 1448L615 1352L541 1342L498 1225L488 1171Q500 1170 509 1150H456Q402 1174 360 1214Q340 1197 338 1171L221 1150H62Q-4 1154 -12 1214V1469H-23L-12
1501ZM775 1501H1180Q1159 1438 1127 1374L914 990L924 1118L828 1044Q829 975 882 926L530 288Q496 236 466 170L381 0L253 11L189 128L147 53L189 21L30 0H-34L30 85L72 213L775 1501ZM147 1352L40 1288L136 1278L168 1299L243 1310L264 1278Q279 1287 285 1310Q229
1350 147 1352ZM743 1320L733 1288L765 1267L775 1310L743 1320ZM530 969L509 916L541 894L562 958L530 969ZM679 809L669 767L701 788Q698 802 679 809ZM488 777Q498 730 541 703Q530 750 488 777ZM338 586Q402 539 498 511Q435 572 338 586ZM221 351L200 288Q225
261 264 245Q252 296 221 351ZM285 202Q288 188 307 181Q304 195 285 202Z" />
<glyph unicode="8" glyph-name="eight" horiz-adv-x="1254" d="M441 1497H526L537 1210L526 1178L431 1147L367 1178L293 1232L272 1178L346 1051Q386 995 441 934Q530 913 537 818V616L399 531L378 425L399 382L537 308V11L420 0L261 42L134 127L49 255Q30 338
27 446L38 595L70 605Q93 679 102 764Q67 828 38 902L27 1104Q30 1149 49 1200L70 1115L112 1136L123 1040L261 1221Q305 1266 346 1327L378 1391L293 1380Q264 1315 219 1242L134 1189L112 1242L91 1327L144 1380L272 1455L441 1497ZM633 1497L792 1486L909 1444L1004
1380L1079 1285L1121 1168L1132 1019L1110 881Q1090 830 1057 775L1036 743L1079 679Q1100 617 1110 541L1132 403Q1122 337 1100 265L1047 159L962 85L856 32L728 0H622V340H675Q724 367 760 414L771 510L749 541Q711 586 707 658L654 679L633 616L622 764L686
871Q703 918 739 956L771 977Q801 958 845 945Q825 990 792 1030Q766 1081 728 1136Q677 1156 622 1189L633 1497ZM909 1040Q943 979 962 902L1079 849L1089 945Q1067 965 1047 998L909 1040ZM261 775Q264 761 282 754Q280 768 261 775ZM346 584Q357 550 388 531Q374
560 346 584ZM994 584L983 531L1015 563Q1012 577 994 584ZM983 425Q986 411 1004 403Q1002 418 983 425ZM378 297Q410 236 473 191Q464 271 378 297ZM272 138L261 96L293 85L303 117L272 138Z" />
<glyph unicode="9" glyph-name="nine" horiz-adv-x="1234" d="M477 1497Q492 1440 498 1370L540 1465Q584 1487 636 1497L838 1423L923 1359L859 1274L710 1136L604 1168L477 1147L392 1094L349 998V860Q349 814 328 775L254 839Q227 862 190 871L169 839Q145
829 126 807Q135 791 158 786Q201 760 243 722Q225 677 190 637L137 595L105 616L84 648L105 722Q62 747 20 786L9 1051L31 1178L137 1348L222 1412L317 1455L392 1476L413 1433L477 1497ZM572 1444L562 1412L593 1391L604 1433L572 1444ZM264 1423Q271 1378 307
1338Q294 1380 264 1423ZM721 1391Q725 1370 742 1359Q738 1380 721 1391ZM774 1359L731 1242L774 1232L816 1295L774 1359ZM445 1285L424 1253L466 1178L477 1263L445 1285ZM954 1274Q1017 1250 1050 1189L1114 945L1103 913Q1094 846 1071 764Q1057 802 1029
807L1050 701L1039 669L731 96Q692 62 668 11Q593 0 498 0H222L381 265Q410 322 455 372Q479 334 519 308Q504 368 477 435L328 457Q327 485 307 510V467L201 531Q209 554 232 573L317 658L402 626L434 743L498 722Q566 724 646 743Q696 770 742 818Q764 878 774
956L763 1062L785 1094L869 1189Q911 1225 954 1274ZM52 998L41 945L52 924L105 913L116 924Q107 975 52 998ZM455 552Q461 523 487 499Q480 528 455 552ZM562 488Q565 475 583 467Q580 481 562 488ZM816 329Q819 315 838 308Q835 322 816 329ZM445 106Q469 72
508 64Q486 93 445 106Z" />
<glyph unicode=":" glyph-name="colon" horiz-adv-x="557" d="M38 1045H344L354 1002V718L291 707H-4L-14 718L-4 749V929L38 1045ZM207 929Q179 883 164 823L207 791L238 834Q231 881 207 929ZM91 834Q94 820 112 813Q109 827 91 834ZM6 359Q29 338 38 306Q56
315 69 338L154 359L185 348Q170 294 164 222L228 148Q231 100 259 53Q281 96 291 148L228 232L291 317Q311 340 344 359L354 306V21L-4 11V222L6 359Z" />
<glyph unicode=";" glyph-name="semicolon" horiz-adv-x="556" d="M8 1045H324L356 1034Q366 959 366 865Q365 791 345 707H29L-2 718Q8 792 8 886V1002L-2 1034L8 1045ZM293 960L271 897L335 876Q329 919 293 960ZM18 359H92L82 296L124 275L145 306L134 359H345L366
327L345 264L282 -73L250 -179L187 -221L8 -242V327L18 359Z" />
<glyph unicode="&lt;" glyph-name="less" horiz-adv-x="1196" />
<glyph unicode="=" glyph-name="equal" horiz-adv-x="1196" />
<glyph unicode="&gt;" glyph-name="greater" horiz-adv-x="1196" />
<glyph unicode="?" glyph-name="question" horiz-adv-x="1164" d="M11 1497L106 1486L138 1497H340L361 1486L372 1157L329 1147Q272 1162 202 1168Q126 1148 32 1147Q0 1220 0 1317V1476L11 1497ZM457 1497L701 1465L807 1423L881 1370Q918 1330 934 1274Q970
1255 998 1221L1030 977L1009 860L966 764L902 690L818 637L478 563Q458 519 414 488H138L96 499Q97 524 117 531L223 563Q274 546 319 510L425 669L457 775Q474 821 510 860L573 934Q610 959 637 1009Q629 1058 605 1104L510 1147Q453 1164 446 1232L457 1497ZM605
1348L563 1263Q588 1240 626 1232Q649 1261 658 1306Q638 1329 605 1348ZM96 913H319Q397 903 446 828L372 679Q321 624 255 584L149 605L138 584L106 595L96 743L117 722L127 733L202 754Q194 783 170 807Q133 804 96 786V913ZM690 786Q705 763 733 754Q718 776
690 786ZM287 775Q292 751 319 733Q314 757 287 775ZM892 743Q895 729 913 722Q911 736 892 743ZM96 340H297L276 308L308 244Q338 269 372 308L467 340V53L478 11L372 0L255 11L138 0L96 11L106 64V223L138 212L149 234Q133 294 96 340Z" />
<glyph unicode="@" glyph-name="at" horiz-adv-x="1196" />
<glyph unicode="A" glyph-name="A" horiz-adv-x="1344" d="M677 1504L825 1483L1236 551L1214 436Q1258 418 1258 340Q1286 364 1322 372L1470 13L1438 2H1322Q1322 37 1301 76Q1261 2 1163 2H878L909 108Q865 98 747 123L553 56L666 277Q710 350 804 362H888L804
594Q771 659 761 753L814 806L782 869L761 996L708 986L698 954L708 859L560 1197L677 1504ZM497 1102Q538 1044 571 943L698 626Q688 547 655 467L444 13L349 2H63Q44 6 31 23Q68 89 95 182L296 637Q329 701 359 795L497 1102ZM888 1091Q866 1038 856 975L846
912H888L930 1007Q921 1048 888 1091ZM1047 901Q1050 887 1068 880Q1066 894 1047 901ZM402 838L423 785L433 827L402 838ZM624 637L603 563Q606 545 624 541L655 615L624 637ZM1015 520L1004 478L1026 467L1036 510L1015 520ZM1089 446Q1107 363 1195 362Q1161
420 1089 446ZM328 383Q297 322 285 245V150L306 192Q336 246 380 298Q363 342 328 383ZM1015 330L1004 277Q1023 286 1036 309Q1034 323 1015 330ZM920 256Q921 233 941 214Q940 236 920 256ZM1227 171Q1230 127 1258 87Q1257 132 1227 171ZM137 161L95 34L148
23L180 129L137 161Z" />
<glyph unicode="B" glyph-name="B" horiz-adv-x="1100" d="M10 1502H266L361 1491V0H31L0 10L10 74V266L31 308Q53 362 95 415Q86 436 63 447L10 372V1459L0 1470L10 1502ZM457 1502L606 1491L724 1459Q766 1431 820 1406L883 1320L937 1214L958 1086L947 948L915
830L862 734L926 649L958 383L926 255L873 159L798 84L702 31L574 0Q511 1 447 21V319L553 372Q584 412 606 468L553 553Q503 572 447 607V905L553 948Q582 997 596 1054Q577 1104 543 1150Q489 1166 447 1214L457 1502ZM255 1374L244 1299Q268 1319 287 1352L255
1374ZM308 1150Q310 1127 329 1107Q329 1130 308 1150ZM883 1118Q862 1095 830 1086Q838 1070 862 1065L905 1075Q904 1098 883 1118ZM106 1086Q109 1072 127 1065Q125 1079 106 1086ZM180 894Q183 880 202 873Q199 887 180 894ZM84 766L74 734L106 713L116 756L84
766ZM543 660Q547 639 564 628Q560 649 543 660ZM191 607L180 564L212 553L223 585L191 607ZM244 287Q247 273 266 266Q263 280 244 287ZM617 223L606 106Q611 85 628 74L649 202L617 223ZM31 212Q36 173 63 138Q60 177 31 212ZM532 191L500 116Q525 79 564 42L574
191H532Z" />
<glyph unicode="C" glyph-name="C" horiz-adv-x="981" d="M707 1504H826L837 1472L826 1450V1137L783 1126Q705 1123 621 1105L502 1051Q458 1009 416 954L373 813V630L416 501L513 414L642 360L804 339Q824 281 826 198V15L739 -17L718 15Q660 -4 589 -6L438
37L319 90L211 166L125 263L60 382L28 533L60 598Q39 621 6 630V770L17 803L6 889L17 921L49 1072L114 1191L189 1288L297 1375L416 1439L556 1482L707 1504ZM513 1321Q518 1299 535 1288Q531 1310 513 1321ZM211 921L168 867Q197 832 222 781Q226 697 276 608L265
695L287 781Q262 853 211 921ZM470 209L448 144L481 123L502 188L470 209ZM567 166Q568 143 589 123Q588 146 567 166Z" />
<glyph unicode="D" glyph-name="D" horiz-adv-x="1419" d="M16 1500H304Q365 1492 378 1425V1148Q377 1085 357 1020Q319 993 293 946L346 935L368 956L378 115Q377 60 346 -1L208 9L133 73L80 158L48 62L144 19L27 -1L16 254L27 381L16 1500ZM453 1500L666 1489Q738
1472 804 1414L858 1436L954 1393L1071 1297L1113 1244L1081 1148L1113 1169L1124 1223Q1159 1187 1188 1138L1252 978L1273 786L1262 584L1220 413Q1183 355 1124 296L1049 254L1071 190L954 94L794 41Q722 14 613 -1H464V62Q448 136 442 222L514 191L527 350L655
371L794 445Q841 501 879 573L911 754Q899 837 868 925Q863 987 826 1052Q746 1063 698 1138L677 1180Q643 1145 591 1116L485 1138L506 1212Q540 1242 559 1287L506 1308Q482 1264 442 1223V1468L453 1500ZM48 1436L37 1393L91 1382L101 1393Q86 1422 48 1436ZM645
1436L634 1361Q658 1381 677 1414L645 1436ZM219 1308L197 1255L250 1265Q244 1288 219 1308ZM762 1244L751 1191L783 1201Q782 1224 762 1244ZM91 1084L69 1031L80 1010L133 999L155 1052L91 1084ZM1145 754Q1148 667 1231 626Q1214 700 1145 754ZM996 669Q999
655 1017 648Q1015 662 996 669ZM293 541Q296 527 314 520Q312 534 293 541ZM112 381Q124 331 165 296Q197 261 250 243L197 339Q160 364 112 381ZM836 381Q840 368 858 360Q855 374 836 381ZM954 190Q957 176 975 169Q973 183 954 190ZM666 94Q695 59 741 51Q709
79 666 94Z" />
<glyph unicode="E" glyph-name="E" horiz-adv-x="1186" d="M0 1498L148 1488L190 1456Q193 1470 211 1477L327 1498Q348 1451 348 1393L359 1256L348 1118L359 992Q335 957 327 907L359 781V64Q330 12 264 11H127Q63 12 -10 32Q-1 88 21 148Q72 156 105 201Q135
243 148 296L105 317L32 275Q22 238 0 222V1466H-10L0 1498ZM464 1498H654L696 1488L675 1372L654 1329L707 1256Q727 1206 781 1182Q718 1160 643 1150H454L443 1477Q458 1478 464 1498ZM760 1498H992L1002 1466L992 1445V1287L971 1161L823 1150Q822 1204 791
1266L749 1372L760 1498ZM591 1466Q592 1444 612 1424Q611 1447 591 1466ZM137 1087Q140 1073 158 1066Q156 1080 137 1087ZM105 960Q109 946 127 939Q124 953 105 960ZM443 918H654L738 907L760 918H907V602H918L907 591L749 570H517L443 580V918ZM274 791Q280
768 306 749Q300 772 274 791ZM42 770Q45 757 63 749Q61 763 42 770ZM696 665Q618 648 580 580Q659 594 696 665ZM42 644Q48 615 74 591Q66 620 42 644ZM179 644L169 612L200 591L211 633L179 644ZM443 348H601Q609 312 633 275V327L770 348L728 253Q738 230 770
211L781 243L770 253Q813 288 876 306Q884 321 886 348L992 338V42Q943 20 886 11H612V53Q587 51 570 32L475 11Q456 16 443 32V348ZM148 127L116 74L190 53Q181 94 148 127Z" />
<glyph unicode="F" glyph-name="F" horiz-adv-x="1186" d="M4 1498H321L352 1488Q363 1413 363 1319V654L352 623L363 296Q359 229 342 148L321 42Q258 20 184 11H36L4 21V528Q5 603 25 686L110 718Q118 696 141 686L152 559L194 591L226 528Q263 494 321 486Q300
538 257 591L173 644L184 791Q219 833 226 897L110 834Q89 781 46 739L4 813V1456L-6 1466L4 1498ZM458 1498H996L1006 1466L996 1372V1150H447V1414L458 1498ZM669 1466Q672 1453 690 1445Q688 1459 669 1466ZM605 1435L595 1393L648 1382L658 1393Q643 1422 605
1435ZM184 1403L173 1329L194 1298L236 1319L268 1287L300 1350Q297 1361 278 1372L184 1403ZM859 1340L848 1308L880 1287L890 1329L859 1340ZM447 918H563L627 876Q701 906 795 918H911V665Q910 650 890 644Q839 582 743 570H532L447 591V918ZM532 865Q535 852
553 844Q550 858 532 865ZM722 728Q722 698 743 665V718L722 728ZM584 644L574 591Q592 600 605 623Q603 637 584 644ZM194 475L173 369L162 338H184Q205 386 215 443Q211 464 194 475ZM67 412L46 275L57 243Q69 166 99 85L89 391Q86 405 67 412Z" />
<glyph unicode="G" glyph-name="G" horiz-adv-x="1407" d="M694 1498L926 1488L968 1477L936 1350Q976 1413 1052 1456L1147 1414L1126 1340L999 1097L915 1129L820 1150L715 1140Q631 1131 535 1087Q471 1044 409 981Q371 898 356 791Q338 716 303 633L272 496L324
507Q346 549 388 580L419 507L546 401L736 359Q742 271 767 159Q805 94 810 11H641L535 32Q452 52 356 95L208 180L103 317L29 475Q25 520 8 570L18 675L8 907L61 1087Q93 1159 145 1245Q205 1288 261 1350Q324 1396 409 1435L556 1477L567 1456L556 1445Q596 1365
694 1350Q725 1362 746 1393L630 1403L588 1488H694V1498ZM535 1245L514 1182L525 1161H567Q563 1204 535 1245ZM683 918H915L947 907Q1021 918 1116 918H1253V148L1263 21Q1227 14 1179 11H957L905 21L915 180L905 570H852L810 580L694 570L683 602V718H799Q836
788 852 886Q806 837 746 791L683 770V918ZM894 707Q897 693 915 686Q913 700 894 707ZM1094 580L1105 517L1094 496L1147 507Q1136 553 1094 580ZM134 454Q138 440 156 433Q153 447 134 454ZM398 264L377 201L388 180L419 211H461Q440 246 398 264ZM504 232Q481
179 472 116L504 137L556 211L504 232Z" />
<glyph unicode="H" glyph-name="H" horiz-adv-x="1409" d="M-2 1499L359 1489V904L348 798L359 457L348 372L359 351V53L348 11L114 0L-13 11Q-5 47 -2 96V1457L-13 1468L-2 1499ZM859 1499H1209L1220 1468L1209 1446V435Q1209 389 1178 198L1124 223L1082 149Q1113
101 1124 43Q1090 1 1029 0H890L848 96V638Q850 693 869 755L890 829V861H880Q858 910 848 968V1372L859 1499ZM1092 1191Q1070 1129 1061 1053L1071 978L1114 1000L1156 1010L1167 1074L1156 1095Q1133 1142 1092 1191ZM189 989Q193 968 210 957Q206 978 189 989ZM19
936Q22 922 40 915Q38 929 19 936ZM1039 936Q1043 922 1061 915Q1058 929 1039 936ZM93 904Q149 843 242 829Q184 881 93 904ZM444 915H635L678 904L667 819L688 787Q707 791 720 808L710 915H763V606L752 564H603L593 596H667Q659 648 635 702L497 744L486 713Q446
802 444 915ZM444 659Q515 641 550 564L444 574V659ZM178 617Q187 582 221 564Q210 595 178 617ZM1082 574V500L1114 553L1082 574ZM1135 489Q1137 430 1167 383L1188 479L1135 489ZM890 457Q894 443 912 436Q909 450 890 457ZM40 447V372L61 425Q59 440 40 447Z"
/>
<glyph unicode="I" glyph-name="I" horiz-adv-x="558" d="M100 1499H354Q411 1363 462 1363V1117L430 1053L462 1032L451 21L387 74L408 11L355 0L366 11L355 128L302 32Q246 130 185 121L173 166L100 188V723L142 702Q142 735 110 744L100 893L153 925Q174 967
174 1021Q121 1026 100 1074V1468H89L100 1499ZM142 553Q146 539 164 532Q161 546 142 553ZM185 521Q188 507 206 500Q204 514 185 521ZM270 415V340L302 393L270 415ZM121 287Q126 263 153 245Q148 269 121 287ZM377 234Q380 220 398 213Q395 227 377 234Z" />
<glyph unicode="J" glyph-name="J" horiz-adv-x="871" d="M309 1499H639Q662 1437 671 1361V532L650 393Q635 332 607 266L543 160L458 85L341 32L214 0Q177 33 128 64Q112 124 43 138L11 213V319H1L33 340L182 351Q230 378 277 425Q285 389 288 340Q306 350 320
372L373 489Q393 513 426 532L416 489L469 436L480 479L469 489Q464 539 426 585L309 606L299 681V1340L309 1499ZM373 1382V1308L394 1361Q392 1375 373 1382ZM309 1351V1329L331 1340L309 1351ZM565 1255L586 1117L618 1106L629 1117Q607 1184 565 1255ZM363
904L352 861L384 872Q380 893 363 904ZM607 510Q590 452 522 425Q536 384 565 351Q603 375 629 425L650 479L607 510ZM426 298Q430 284 448 276Q445 291 426 298ZM11 85H75L65 0L1 11L11 85Z" />
<glyph unicode="K" glyph-name="K" horiz-adv-x="1196" d="M788 1495H967Q1040 1487 1114 1453L1167 1495Q1157 1470 1136 1442Q1104 1425 1083 1390L1114 1358L1009 1179Q980 1139 957 1084L778 726L1157 42Q1119 5 1062 0H946Q942 24 925 42Q872 4 788 0Q750
47 714 105L378 726L409 811Q443 862 472 926L725 1390Q750 1439 788 1495ZM-5 1499H261L356 1489V53L346 0H16L-16 11L37 298L-5 383V904Q31 968 48 1053L16 1063L-5 1159V1404L27 1436Q5 1464 -5 1499ZM809 1369Q840 1281 946 1263Q903 1338 809 1369ZM146 1348L125
1295Q145 1318 146 1348ZM114 1274L83 1127Q93 1083 135 1063Q164 1111 177 1179Q153 1228 114 1274ZM167 1084V958L199 937Q190 1006 167 1084ZM283 990Q288 939 314 895Q319 939 335 990H283ZM451 800L430 748Q460 695 504 642Q560 592 641 590L588 758Q528 785
451 800ZM20 547Q23 534 41 526Q38 540 20 547ZM714 505V326L788 221Q856 216 914 168L936 116Q970 116 1009 137L936 242Q921 293 883 337Q847 329 799 326L778 400Q754 456 714 505ZM135 358L125 305Q143 315 156 337Q154 351 135 358ZM188 158L146 32L177 21L220
105Q214 134 188 158ZM1072 63L1041 21Q1072 31 1072 63Z" />
<glyph unicode="L" glyph-name="L" horiz-adv-x="1121" d="M24 1495H322Q362 1454 364 1379V488Q363 436 343 382Q312 421 268 456Q239 484 194 488Q153 463 99 456L120 424Q159 395 194 350Q220 305 268 276L343 329L364 191V42Q315 12 258 0H109Q54 1 3 32V1368L24
1495ZM46 1029Q49 1015 67 1008Q65 1022 46 1029ZM152 955Q129 934 109 902Q124 886 152 880L184 933L152 955ZM78 806Q81 792 99 785Q96 799 78 806ZM67 552Q70 538 88 530Q86 544 67 552ZM131 552Q132 529 152 509Q148 534 131 552ZM88 520Q91 506 109 498Q106
509 88 520ZM449 339L629 308Q712 330 810 339L926 329Q918 293 916 244V32Q839 10 756 0H449V339ZM831 223Q832 200 852 180Q851 203 831 223Z" />
<glyph unicode="M" glyph-name="M" horiz-adv-x="1592" d="M165 1511H410Q503 1509 570 1426L602 1351Q566 1328 549 1288L538 1181L591 1234L602 1341L655 1256L804 936L1059 1405Q1075 1442 1112 1479V1362Q1114 1258 1134 1139V904L1091 798L1144 777L1081
607Q1055 530 995 447L953 266L878 106L857 11Q822 38 793 85L570 575L559 660L602 745L612 787L602 904Q597 923 580 936L495 1096Q495 1192 517 1298L495 1351Q466 1303 453 1245L474 1064Q463 1061 453 1043Q434 993 400 947Q391 978 368 1011Q340 1090 293
1181L165 1511ZM1166 1500Q1220 1463 1261 1405V1266L1229 1256Q1166 1260 1166 1341L1155 1458L1166 1500ZM1240 1500H1400Q1464 1499 1538 1479L1613 202H1559L1517 96L1506 43L1623 106V32Q1566 9 1495 0H1261L1251 74L1219 649H1208L1187 1043L1208 1075Q1189
1122 1187 1192Q1229 1171 1272 1139Q1311 1103 1347 1053L1389 1022Q1386 1046 1368 1064L1378 1170V1202H1368Q1334 1244 1304 1298L1315 1415L1240 1500ZM102 1426Q154 1356 197 1256L368 894Q409 813 431 702L389 0H80L6 11V160L17 192L27 436Q45 544 48 681L112
607L134 681L208 692Q199 754 165 809Q79 862 70 979L102 1426ZM1495 1192Q1499 1178 1517 1170Q1514 1185 1495 1192ZM1400 1000L1389 926L1421 915L1432 990L1400 1000ZM442 883H495L527 809L506 777Q468 822 442 883ZM1357 873Q1349 836 1347 787L1357 756Q1376
717 1421 692L1410 798Q1393 839 1357 873ZM942 798Q914 729 846 681L836 607L932 596Q937 667 985 724Q1005 739 1006 766L942 798ZM134 575V479L165 468L176 479Q167 531 134 575ZM219 511V436L240 489Q238 504 219 511ZM900 383L878 309Q880 290 900 287L932
362L900 383ZM1506 330L1485 266L1517 245L1538 309L1506 330ZM219 266Q222 252 240 245Q238 259 219 266ZM1421 43Q1444 25 1474 21L1421 43Z" />
<glyph unicode="N" glyph-name="N" horiz-adv-x="1406" d="M10 1505L181 1473L203 1505H373L395 1495L491 1345Q537 1283 544 1196L512 1121Q543 1087 555 1036V961L619 1057Q671 1017 715 961Q759 898 801 811L843 769L854 801L843 897V1089L854 1132L907 1228L854
1260L843 1463Q934 1503 1046 1505L1206 1495V0L1196 43L1057 0H865L662 331L672 459L640 480L630 459L523 587L427 747Q387 818 373 908Q306 962 256 1046L85 1356Q35 1421 10 1505ZM1089 1356L1046 1249L1100 1239L1132 1313Q1118 1333 1089 1356ZM427 1068L416
1014H480L427 1068ZM1057 940Q1065 902 1089 865Q1085 907 1057 940ZM480 908Q483 894 502 886Q499 900 480 908ZM427 801L438 758L448 801H427ZM1089 651Q1092 637 1110 630Q1108 644 1089 651ZM747 587Q750 573 769 566Q766 580 747 587ZM950 555L929 502L950
470L961 491Q985 509 1003 545L950 555ZM1025 555Q1028 541 1046 534Q1044 548 1025 555ZM939 128Q944 88 982 64Q969 100 939 128ZM21 107Q24 93 43 85Q40 100 21 107ZM0 1292L107 1132L192 950L107 929Q130 882 181 854L235 886L299 779Q347 697 352 587L296
660L191 615L85 683L64 673Q9 735 0 833V1057L10 1089L0 1292ZM363 416V21L331 0H235L203 11L128 0H85L-10 11L0 160V630H53L363 416Z" />
<glyph unicode="O" glyph-name="O" horiz-adv-x="1603" d="M676 1500H857L889 1490L900 1469L889 1437Q921 1463 974 1479L1123 1415L1144 1394L1123 1341L1176 1373L1251 1320Q1236 1292 1208 1266L1102 1160Q1052 1107 985 1064Q932 1103 889 1160Q877 1194
846 1224L836 1139L644 1149L623 1139Q553 1114 495 1064L399 947Q380 885 336 841Q298 860 250 862Q256 839 282 819Q342 778 357 692Q374 614 410 521Q398 466 346 415L240 298L165 245L123 298L48 447L6 617L-4 830L70 883L16 936L91 947L112 926Q134 898 176
883L187 926L155 936Q90 970 48 1043L112 1192L219 1309L336 1405L676 1500ZM1293 1256Q1338 1208 1379 1149L1442 1011L1474 851L1485 670L1421 585L1442 479L1389 341L1208 138L942 21Q869 24 825 85L740 32Q669 11 591 11L431 43Q374 75 314 128L410 223Q436
237 453 266H399L389 255L282 170H240L304 266L399 362Q439 405 495 436Q550 400 623 372L804 362L942 415L1049 500Q1078 560 1102 639Q1117 714 1123 809L1081 958L1049 1000L1293 1256ZM1176 979Q1181 958 1198 947L1176 979ZM1230 681Q1233 667 1251 660Q1248
674 1230 681ZM1155 585Q1158 571 1176 564Q1174 578 1155 585ZM261 553L250 521L282 500L293 543L261 553ZM1198 362Q1201 348 1219 341Q1217 355 1198 362ZM1251 362Q1254 348 1272 341Q1270 355 1251 362ZM655 170Q658 156 676 149Q674 163 655 170ZM772 21H836L761
0L772 21Z" />
<glyph unicode="P" glyph-name="P" horiz-adv-x="1123" d="M4 1495H249Q343 1495 355 1399V28Q350 9 334 -4L259 17Q203 2 132 -4L-6 7Q1 43 4 92V1452L-6 1463L4 1495ZM451 1495L631 1474Q702 1450 780 1410Q831 1367 887 1304Q918 1232 940 1144L950 1102L940
985L908 974L940 921L908 825Q873 763 823 698L695 612L514 570L440 581Q455 620 483 666Q475 707 451 751V698L440 729V900L472 921Q546 938 589 1016Q582 1095 514 1144L440 1165V1463L451 1495ZM504 1420L493 1346L536 1378Q527 1403 504 1420ZM89 1335Q74 1300
68 1250Q87 1290 89 1335ZM738 1261L727 1218L780 1208L791 1218Q773 1246 738 1261ZM833 1165Q844 1127 876 1091Q866 1130 833 1165ZM132 1133L110 1048Q115 1030 132 1016L153 1102Q149 1123 132 1133ZM748 719Q752 705 770 698Q767 712 748 719ZM302 623L281
559Q233 564 185 591Q154 591 121 570H174Q170 545 142 527L270 506L323 517Q323 567 302 623ZM142 400Q146 386 164 379Q161 393 142 400ZM142 113Q145 69 174 28Q169 73 142 113Z" />
<glyph unicode="Q" glyph-name="Q" horiz-adv-x="1614" d="M680 1495L903 1484Q990 1467 1084 1431Q1154 1395 1222 1325Q1213 1260 1158 1208L1062 1112V1165Q1045 1202 1009 1229Q991 1205 988 1176L1020 1059L977 1070Q906 1110 807 1133Q807 1209 743 1261Q670
1304 573 1325L605 1176L701 1272V1229Q725 1205 743 1165L648 1133L488 1059L393 921Q367 839 361 729Q365 643 403 538L435 506L361 411L244 294L169 240L42 453L20 602L84 591Q115 535 169 496Q166 564 116 581Q105 663 0 676V857L10 900Q28 987 74 1080Q99
1148 148 1229L265 1346L382 1410V1357Q429 1413 499 1452L680 1495ZM424 1420V1346L446 1399Q443 1413 424 1420ZM361 1325Q346 1240 297 1144L276 1027Q296 1004 329 985Q345 1067 382 1165L393 1250L382 1282Q381 1305 361 1325ZM960 1218T977 1208Q975 1222
956 1229Q960 1218 977 1208ZM1265 1208L1286 1070Q1330 1071 1350 1112Q1364 1132 1392 1144L1467 942L1488 793V634L1467 485L1435 442L1296 581Q1259 617 1222 666L1233 719Q1209 705 1169 698Q1141 747 1126 814L1084 953L1052 985L1094 1038L1265 1208ZM1275
1006V857Q1275 801 1296 740V985Q1294 999 1275 1006ZM339 974Q343 960 361 953Q358 967 339 974ZM914 804Q967 769 1020 719L1105 634Q1147 599 1190 549L1381 379L1286 294L1318 219L1350 251Q1379 294 1424 325Q1462 288 1477 230L1265 -4H1233L1222 28H1243L1254
70L1243 81H1148L1031 28L807 -4L818 81L775 145Q746 142 722 123L701 60L712 38L743 17L637 -4L446 38L329 102Q283 144 254 209L467 442L520 411L648 357H818L850 379L797 442L701 527L680 570L914 804ZM297 740Q297 709 318 676V729L297 740ZM1254 676L1265
634L1275 676H1254ZM914 591Q917 577 935 570Q933 584 914 591ZM935 357Q940 333 967 315Q961 338 935 357Z" />
<glyph unicode="R" glyph-name="R" horiz-adv-x="1160" d="M2 1495H140Q159 1490 172 1474L140 1410Q148 1377 172 1357L194 1463Q250 1486 311 1495Q348 1461 364 1410V38Q327 -1 268 -4H130L45 7L13 -4L2 1016L45 1027Q63 1064 66 1112Q62 1158 24 1187L2 1240V1378L-8
1463L2 1495ZM449 1495Q465 1460 470 1420L438 1399L449 1495ZM513 1495L662 1463Q712 1446 768 1410L842 1357L906 1261L949 1133L959 985L938 836L885 729Q856 680 810 634L832 517L1012 28Q956 6 895 -4Q847 23 810 70L736 -4Q715 42 662 49L566 283L545 421L534
368L491 432L470 559Q449 605 438 666V836Q446 899 513 931Q558 961 598 1006Q587 1069 555 1133L438 1176L449 1314L513 1378Q528 1387 534 1410L513 1495ZM683 1144L662 1091Q682 1114 683 1144ZM789 1006L768 900L800 889L810 910Q835 928 853 963L789 1006ZM289
942L268 868L279 836L311 825L321 836L343 931L289 942ZM576 942L566 910L576 836L662 804Q628 873 576 942ZM204 846L194 804L226 825Q223 839 204 846ZM736 846L715 793Q735 817 736 846ZM87 304Q91 290 109 283Q106 297 87 304Z" />
<glyph unicode="S" glyph-name="S" horiz-adv-x="1201" d="M352 1495L458 1484V1399L437 1304L458 1261L384 1155L362 1027Q398 978 458 942Q505 910 543 857Q549 799 607 761L660 878L798 825Q853 792 873 729Q915 709 958 676L1000 527V347L958 198L873 92L767
17L596 -4H543V325Q597 357 639 411Q623 475 575 527L288 612L160 676L65 772Q70 828 118 868L22 931Q2 1007 1 1102Q9 1170 33 1250Q63 1309 107 1367L214 1452L352 1495ZM554 1495L692 1484L809 1452L894 1389L958 1304L990 1197L1000 1102L969 1080L788 1016Q773
1026 767 1048Q760 1103 735 1165Q688 1155 660 1112L724 1027Q697 1005 660 995V1038Q644 1082 607 1123Q566 1152 543 1208L554 1495ZM618 1420L596 1357L628 1335L650 1399L618 1420ZM277 1389Q285 1331 309 1272Q349 1254 394 1250L341 1314Q315 1352 277 1389ZM277
1080Q234 1054 203 1006L171 942L203 921Q247 942 277 985L288 1059V1080H277ZM277 814V740L299 793Q296 807 277 814ZM373 687Q401 646 448 612Q422 659 373 687ZM915 612L894 506L926 442L937 527Q936 571 915 612ZM575 591Q578 577 596 570Q594 584 575 591ZM798
496Q802 482 820 474Q817 488 798 496ZM299 496Q331 455 352 400Q375 346 384 283Q360 240 320 198L309 145L331 123L341 134L437 187L458 102L437 28L362 -4L245 28L150 70L65 134L22 240L1 357Q36 397 86 421L299 496ZM54 336L33 304L54 219H97Q92 278 54 336ZM873
325L852 272L862 251L894 272Q893 301 873 325Z" />
<glyph unicode="T" glyph-name="T" horiz-adv-x="1156" d="M350 1495H760L781 1442V1400Q837 1418 855 1484Q939 1480 1002 1432L1044 1421V1222L928 1159Q892 1143 844 1138Q820 1187 802 1253L792 1348Q754 1338 729 1306L708 1232L781 1169Q706 1141 613 1138H4V1274L67
1348L46 1411L-6 1463Q49 1478 119 1484H308L350 1495ZM844 1379L823 1337Q840 1297 876 1264Q875 1321 844 1379ZM477 1348L466 1316L477 1295Q500 1315 519 1348H477ZM340 1053Q383 1051 424 1022L487 1053H655Q667 1004 697 959V2H477L508 55V171Q481 148 445
139Q436 191 413 244Q383 239 361 213L371 339L382 381Q402 332 434 286L424 328L445 444L403 507Q415 605 445 717Q438 770 392 812L371 738L340 801V1053ZM666 717L634 633Q647 597 655 549L676 686V717H666ZM613 433Q616 420 634 412Q632 426 613 433ZM340 129Q399
86 403 2H340V129Z" />
<glyph unicode="U" glyph-name="U" horiz-adv-x="1390" d="M135 1300L145 1343L209 1300Q190 1343 156 1385V1490L219 1501Q294 1500 377 1480V604L409 456L483 361Q542 332 557 256L462 245L494 203L515 45Q458 18 388 13L251 55L156 140L82 245L29 361L8 984L40
994L50 973L61 920Q99 932 124 963L135 1068Q130 1086 135 1300ZM831 1501H1127Q1187 1479 1190 1406L1159 1300Q1177 1260 1190 1205V1058Q1189 1005 1169 963Q1154 983 1127 1005V952L1148 836Q1175 787 1190 720V572L1148 330L1095 224L1032 140L958 76L863
24L736 2H631V55L662 161Q683 206 715 256L736 308H662Q669 340 694 361Q733 391 768 435L810 541V1121Q814 1182 831 1248L810 1374Q814 1435 831 1501ZM884 1195Q901 1112 969 1047Q963 1138 884 1195ZM103 878Q83 816 50 752L71 593L29 519L50 477Q63 416 103
351Q125 413 135 488Q107 548 92 625L124 752Q120 815 103 878ZM325 530Q328 516 346 509Q343 523 325 530ZM304 477H325V498H314L304 477ZM367 203L346 150L356 129L367 97L409 129L441 182L367 203ZM715 118L705 66Q723 75 736 97Q734 111 715 118ZM747 55Q750
41 768 34Q766 48 747 55ZM546 34L557 2H536L546 34Z" />
<glyph unicode="V" glyph-name="V" horiz-adv-x="1307" d="M-4 1500L251 1490L282 1500L431 1490L527 1277L559 1160L612 1054Q626 1005 654 948L867 385Q884 333 888 268L813 45Q771 9 707 -8Q655 11 612 56L474 374L495 406L474 481Q435 503 399 544L27 1394L-4
1500ZM1026 1500H1430L1419 1437L1291 1341H1366L1323 1224Q1269 1160 1249 1065Q1223 990 1175 905L1132 789L1079 820L1047 725L1068 651L1005 481Q982 454 941 438L771 863L750 937L803 1022L1026 1500ZM112 1426Q116 1412 134 1405Q131 1419 112 1426ZM1058
1362Q1050 1326 1047 1277L1058 1256L1090 1224Q1089 1292 1058 1362ZM272 1299Q279 1225 325 1160Q340 1170 346 1192L325 1288L272 1299ZM431 1139Q434 1125 452 1118Q450 1132 431 1139ZM1090 1139L1122 990L1153 1033Q1145 1093 1090 1139ZM389 1107Q395 1078
420 1054Q415 1083 389 1107ZM378 980L367 937L399 959Q397 973 378 980ZM1132 884Q1135 870 1153 863Q1151 877 1132 884ZM559 757L516 704L548 672L580 693Q579 722 559 757ZM612 566Q621 481 697 427Q682 509 612 566Z" />
<glyph unicode="W" glyph-name="W" horiz-adv-x="1653" d="M268 1499L247 1456Q254 1434 279 1414L300 1456V1478H290L332 1499L353 1425L343 1403L385 1265L428 1010L385 989L343 936Q372 934 396 914L460 819L545 255L524 213L577 96L587 0H385L396 53L385 96Q355
72 332 32Q323 11 300 0Q251 2 204 21L226 128L204 159L162 298L34 1063Q34 1130 13 1191L-8 1350L2 1393L88 1350Q122 1302 173 1254Q189 1312 194 1382L268 1499ZM800 1499Q876 1497 917 1425L949 1340Q940 1318 917 1308Q888 1260 874 1191Q913 1174 949 1138L1002
1180L1215 574L1225 457L1204 425L1225 340L1268 361L1310 266L1225 117L1215 32L1225 0H1055L1045 53L885 436Q866 488 832 532L662 159Q635 196 619 245L534 702Q538 768 555 840L694 1244Q724 1300 768 1350L800 1499ZM1342 1499H1608L1715 1488L1576 702Q1561
637 1523 574Q1520 611 1502 649Q1479 640 1470 617L1491 521L1544 510Q1526 443 1513 340L1470 117Q1421 190 1385 298L1310 478Q1286 557 1268 670L1225 765L1247 882L1310 1074L1279 1106L1342 1499ZM1513 1435Q1520 1400 1555 1382Q1544 1413 1513 1435ZM715
1212Q736 1131 779 1052L789 1159L715 1212ZM1459 1212Q1463 1198 1481 1191Q1478 1205 1459 1212ZM800 957Q803 943 821 936Q819 950 800 957ZM960 925Q966 902 991 882Q988 910 960 925ZM1300 925Q1322 889 1364 872Q1339 906 1300 925ZM236 861Q226 786 226
691L268 680L279 691Q272 764 236 861ZM694 829V755Q716 777 726 808L694 829ZM1353 797Q1356 784 1374 776Q1372 790 1353 797ZM609 670Q612 656 630 649Q628 663 609 670ZM566 638Q569 624 587 617Q585 631 566 638ZM1098 638L1087 553L1119 574V627L1098 638ZM353
372Q358 351 375 340Q371 361 353 372ZM1310 234L1342 191Q1320 207 1310 234Z" />
<glyph unicode="X" glyph-name="X" horiz-adv-x="1088" d="M3 1495H141L173 1484L205 1495H417L724 944L639 922Q610 943 565 954Q585 888 618 816L777 774Q824 759 851 710Q889 646 915 573Q921 533 957 520L1244 0H1191Q1106 3 1042 74Q1029 95 1000 117L979
21L820 0L798 21L724 159Q687 230 661 318Q630 373 576 435L268 986L226 1081L236 1145Q211 1201 205 1272L215 1347L205 1378L183 1400H162L152 1230L3 1495ZM830 1495H979V1453Q1008 1437 1032 1410Q1050 1419 1064 1442V1495L1148 1442L1170 1495Q1207 1494
1233 1463L1042 1103L968 997Q953 967 926 944L904 1018Q894 943 894 848Q849 882 809 933L671 1166Q686 1224 714 1283Q757 1329 798 1389Q807 1440 830 1495ZM957 1400L926 1357L957 1347Q978 1356 989 1378L957 1400ZM396 1336L385 1262L406 1230L449 1251L470
1325L396 1336ZM364 891Q367 877 385 869Q383 884 364 891ZM332 668Q372 625 406 562L533 339Q552 304 565 254L544 223Q514 176 449 159L396 191L385 148V32H396Q391 13 374 0H77L88 42L3 0Q12 51 35 106L215 435L268 562L332 668ZM830 445Q833 432 851 424Q849
438 830 445ZM904 350L873 254L798 286Q827 218 894 170L883 106H947L936 191L957 307Q937 330 904 350Z" />
<glyph unicode="Y" glyph-name="Y" horiz-adv-x="1096" d="M-35 1495H293L303 1474L293 1442L335 1495Q375 1460 409 1410L759 785L781 636L770 329Q718 320 675 286Q656 248 685 191L664 53L696 0H399L388 42V689L166 1113Q170 1178 187 1241L123 1304L91 1251L60
1304Q38 1360 28 1431Q-16 1443 -35 1495ZM802 1495H1173L1194 1421L1152 1347L1056 1368Q1067 1324 1099 1283L1035 1135L865 848L823 795L781 880Q737 942 696 1028Q748 1035 812 1060L865 1188L844 1209Q768 1178 749 1081H675L664 1230Q694 1290 749 1336L834
1294L844 1357Q832 1425 802 1495ZM346 1241V1166L367 1219Q365 1233 346 1241ZM399 933Q403 912 420 901Q416 922 399 933ZM494 880L473 816L526 806Q522 844 494 880ZM484 573Q487 559 505 551Q503 565 484 573ZM728 445Q731 432 749 424Q746 438 728 445ZM622
286Q625 272 643 265Q640 279 622 286ZM409 276V201L431 254Q428 269 409 276Z" />
<glyph unicode="Z" glyph-name="Z" horiz-adv-x="1333" d="M-3 1495H474L506 1484L517 1495H654L697 1484L676 1421Q625 1348 580 1251L527 1166L410 1145H8L-3 1453L-13 1463L-3 1495ZM782 1495L1027 1498L972 1368Q1015 1250 1016 1134L379 0H220Q201 5 188
21V85L124 11L-24 0L61 180L145 307L283 573L379 626L326 636L442 869Q464 905 485 954L538 922L548 880Q576 921 580 975L527 986Q540 1035 570 1092L633 1230L718 1357L782 1495ZM103 1431V1357L124 1410Q122 1424 103 1431ZM856 1272L813 1219Q826 1187 856
1166L919 1272H856ZM506 859Q511 829 538 806Q532 835 506 859ZM400 636Q403 622 421 615Q419 629 400 636ZM294 509Q297 495 315 488Q313 502 294 509ZM676 350H782L760 307L750 265H771Q793 273 803 297L1057 350Q1121 348 1185 329L1163 233L1195 11L1153 0H686Q633
4 570 32Q540 68 538 117L570 148L676 350ZM167 318Q170 304 188 297Q185 311 167 318Z" />
<glyph unicode="[" glyph-name="bracketleft" horiz-adv-x="1813" d="M849 1040Q900 1040 947 1015T1022 941T1050 840Q1049 789 1023 742T949 669T849 642Q797 641 750 668T677 742T650 841Q650 893 677 941T751 1014T849 1040ZM600 848L0 850Q0 1072 114 1276T436
1592L730 1069Q668 1036 634 975T600 848ZM1276 1592Q1469 1480 1584 1276T1699 850H1100Q1100 914 1067 974T977 1065L1276 1592ZM973 635L1273 114Q1070 2 849 2Q629 2 439 116L734 629Q783 600 849 600T973 635Z" />
<glyph unicode="\" glyph-name="backslash" horiz-adv-x="623" d="M463 -245L252 -296L-238 1747L-27 1797L463 -245Z" />
<glyph unicode="]" glyph-name="bracketright" horiz-adv-x="1813" d="M799 554T752 579T677 653T650 753Q650 805 676 852T750 926T849 952Q901 952 949 926T1023 852T1050 754Q1049 701 1022 653T948 580T849 554Q799 554 752 579ZM599 680T633 619T730 525L436
2Q228 114 114 318T0 744L600 746Q599 680 633 619ZM977 529Q1033 559 1066 619T1100 744H1699Q1699 522 1584 318T1276 3L977 529ZM916 993T850 994T734 965L439 1478Q629 1592 849 1592Q1070 1592 1273 1480L973 959Q916 993 850 994Z" />
<glyph unicode="^" glyph-name="asciicircum" horiz-adv-x="961" />
<glyph unicode="_" glyph-name="underscore" horiz-adv-x="1139" />
<glyph unicode="`" glyph-name="grave" horiz-adv-x="682" />
<glyph unicode="a" glyph-name="a" horiz-adv-x="1320" d="M640 1502H789L1371 189Q1369 160 1350 125Q1352 61 1413 30L1329 -1H524L492 20L672 358H789Q802 287 831 210Q856 260 863 316L820 464Q786 544 778 644L842 697L768 793Q741 773 725 740L683 803L630
951Q612 1001 609 1068H672L693 1142L672 1184Q658 1183 651 1163L609 1153V1174Q640 1212 662 1269Q617 1289 588 1343L640 1502ZM725 1248Q728 1234 746 1227Q744 1241 725 1248ZM672 1216Q675 1202 693 1195Q691 1209 672 1216ZM566 1131Q595 1125 609 1089Q583
1098 566 1131ZM820 1121Q824 1107 842 1100Q839 1114 820 1121ZM460 1089Q506 1030 535 941L662 623Q652 544 619 464L408 9L312 -1H26Q7 2 -5 20L460 1089ZM503 898Q506 885 524 877Q522 891 503 898ZM1075 602Q1067 535 1011 496Q1030 444 1064 390L1106 369L1096
454Q1096 524 1075 602ZM471 390L408 200L439 178L503 369L471 390ZM281 295Q322 251 376 210Q343 262 281 295ZM1000 295L979 263L1000 178Q1026 148 1064 136Q1086 158 1096 189L1053 200Q1035 249 1000 295ZM1159 253Q1172 187 1244 178L1159 253ZM746 104L683
9L820 51L831 9L884 73L746 104Z" />
<glyph unicode="b" glyph-name="b" horiz-adv-x="1098" d="M0 1492L42 1471Q117 1492 212 1492L349 1482V0H0L-10 21L0 52Q3 94 32 126Q14 157 0 201V995Q42 997 85 1026L21 1016L0 1111V1450L-10 1461L0 1492ZM445 1492L614 1471L731 1408Q782 1393 836 1365L900
1249L942 1101L932 952Q918 883 889 815L868 762Q834 782 783 793L741 730L783 698L794 645L847 709Q888 662 921 592L942 433L921 275L858 158Q811 113 752 73L625 21L455 0Q435 75 434 169V317L455 338Q512 356 572 391L593 465L582 497L561 529L455 603L434
910L466 921Q532 933 572 995Q586 1059 646 1101Q592 1139 551 1196Q553 1257 572 1333L540 1365L508 1291Q498 1219 455 1153Q435 1229 434 1323V1461L445 1492ZM815 1238L794 1153H836L858 1206L847 1228L815 1238ZM53 1111Q56 1097 74 1090Q72 1104 53 1111ZM551
698Q554 684 572 677Q569 691 551 698ZM191 635Q194 621 212 613Q209 628 191 635ZM318 455H339V476H328L318 455ZM85 243L63 179L95 169Q127 194 138 222L85 243ZM307 158Q315 138 339 137L307 158ZM212 116L201 63Q219 72 233 95Q231 109 212 116Z" />
<glyph unicode="c" glyph-name="c" horiz-adv-x="963" d="M706 1502H822L833 1470L822 1396V1301L790 1343L759 1322L737 1248L748 1227L822 1258L812 1131H716L526 1089L420 973Q386 889 378 782V655L399 581Q440 512 494 443L653 369L801 358L822 327Q820 244
790 136Q755 67 695 9Q611 13 505 41Q408 62 399 168Q369 190 325 200L356 157V94L134 274Q140 323 187 358Q179 379 155 380Q113 450 113 549Q139 624 145 718Q99 678 70 613L60 517L81 411L39 475L18 920L70 1100L155 1237Q188 1300 261 1311L346 1407L515 1470L706
1502ZM483 1089Q487 1075 505 1068Q502 1082 483 1089ZM176 613L155 581L166 507Q205 477 261 464L250 560Q224 597 176 613ZM346 613L335 538L367 528L378 591L346 613Z" />
<glyph unicode="d" glyph-name="d" horiz-adv-x="1412" d="M438 1502H533L522 1438Q524 1424 543 1417Q585 1471 649 1491L808 1449L946 1385L1062 1290L1157 1184L1210 1036Q1232 962 1242 867L1253 708L1232 528L1179 380Q1140 324 1083 274Q1060 204 999 147Q942
162 914 231L872 157L935 136L872 73Q802 66 727 10L543 9L427 20L438 94Q500 118 522 189L469 200L427 178V231L438 358H512L670 390L797 475Q838 531 872 602L893 782L850 941L766 1057Q709 1086 639 1110L459 1131Q428 1207 427 1311V1481L438 1502ZM797 1375L766
1248Q780 1232 808 1227L829 1333L797 1375ZM215 1343Q218 1329 236 1322Q234 1336 215 1343ZM713 1343Q716 1329 734 1322Q732 1336 713 1343ZM946 1184Q957 1154 988 1131Q975 1161 946 1184ZM1115 1057Q1123 1028 1147 1004L1179 1057H1115ZM935 803Q938 789
956 782Q954 796 935 803ZM1041 665L1030 623L1062 634Q1058 655 1041 665ZM226 644Q274 598 342 570Q304 635 226 644ZM183 517Q185 447 226 390L215 485L226 517H183ZM977 517Q981 503 999 496Q996 510 977 517ZM575 253Q575 185 607 115Q637 60 713 41Q693 112
660 178Q628 220 575 253ZM268 51Q309 46 342 9H247L268 51ZM46 1502H321Q361 1465 363 1407V1269L342 1163L363 1047L342 973L363 951V813L268 814Q237 851 183 867Q161 813 152 740L162 687L236 697Q243 753 363 768V274Q351 226 321 178Q321 132 300 83L215
62L226 9H46V51L67 157V221Q49 211 35 189Q27 158 3 125V1121Q37 1163 99 1163L35 1184Q14 1227 14 1280L35 1354L25 1385L46 1502Z" />
<glyph unicode="e" glyph-name="e" horiz-adv-x="1190" d="M2 1500H300Q356 1482 364 1415V117Q362 62 332 0H45L-8 11L2 85V234L13 362L2 941L55 1057Q116 965 176 1160L183 1287Q193 1337 88 1277Q199 1414 172 1415L66 1372L2 1330V1468H-8L2 1500ZM460 1500H1002V1362Q1000
1287 981 1202L1002 1170Q909 1149 789 1149H449V1457L460 1500ZM789 1404Q793 1390 811 1383Q808 1397 789 1404ZM789 1340Q793 1327 811 1319Q808 1333 789 1340ZM662 1213Q665 1199 683 1191Q681 1206 662 1213ZM460 915H917V862Q915 812 896 755L928 585L917
564H704L715 638L683 660L672 638Q656 607 640 564H491L449 574L481 723Q460 806 460 915ZM119 543L55 426H119L162 457Q149 502 119 543ZM449 340H853V266H864L874 340Q939 339 1002 319V74L1013 11L449 0V340ZM470 213Q472 190 491 170Q491 193 470 213ZM789
149Q798 80 864 64Q836 113 789 149ZM98 128L87 53L140 32Q131 79 98 128Z" />
<glyph unicode="f" glyph-name="f" horiz-adv-x="1188" d="M3 1182H45L24 1266L77 1255L67 1372L77 1415L152 1447L173 1394L279 1383L301 1415Q256 1445 226 1500H354L365 1457V564L322 638L173 670Q147 619 109 564Q114 500 184 489Q186 560 237 617L301 606V500Q306
431 343 362L365 245V64L354 0H67L-7 11Q0 47 3 96V1140L-7 1150L3 1182ZM460 1500H535V1426L588 1500L1003 1489V1149H737L748 1202L705 1245Q683 1241 673 1223L694 1149H514Q459 1164 450 1234L460 1500ZM322 1436Q325 1422 343 1415Q341 1429 322 1436ZM216
1277Q219 1263 237 1255Q235 1270 216 1277ZM460 915H801Q825 894 833 862L791 840Q840 811 811 766Q789 725 748 691L758 649L790 642L829 635Q854 676 885 665T918 628Q917 575 854 564L822 574Q785 567 737 564L460 574L450 702Q454 763 471 830L492 883L460
915ZM545 798Q550 777 567 766Q563 787 545 798ZM131 404L109 298L120 255L237 213L258 287L248 319L226 351L131 404ZM77 160L56 64L88 43L109 138L77 160Z" />
<glyph unicode="g" glyph-name="g" horiz-adv-x="1386" d="M695 1500L961 1489L1067 1457Q1112 1434 1153 1394L1110 1298Q1063 1278 1025 1245Q977 1233 929 1202Q923 1158 887 1128L770 1149L546 1096Q511 1077 472 1043Q436 1012 408 968Q384 928 365 872L355
809L323 840Q289 877 238 894L142 926Q134 890 131 840L142 809Q189 785 248 777L344 734L365 617L408 521Q432 485 450 436Q457 393 493 362L567 383L684 362Q715 328 759 298L770 351L823 330L812 64L823 11L748 0Q736 5 727 21L663 0Q612 7 567 32L493 64L429
43L408 170L372 132Q363 284 344 309L340 224L291 372L259 383Q209 383 153 362Q130 331 89 319L14 521L4 649Q19 701 25 766L4 883L57 1106L163 1277L238 1340L301 1319L323 1330Q333 1373 365 1415L472 1457L695 1500ZM950 1128Q981 1124 1004 1096Q974 1103
950 1128ZM684 915H833L865 883L1014 915Q1089 915 1174 872Q1209 900 1259 915V43Q1193 4 1110 0H950L918 11V543L887 564L727 574V617Q691 654 684 713V915ZM1014 830Q1017 816 1036 809Q1033 823 1014 830ZM844 734Q874 673 918 617Q893 680 844 734ZM1121 670L1099
617L1163 585Q1161 632 1121 670ZM1089 372Q1095 343 1121 319Q1115 348 1089 372ZM727 213V138L759 191L727 213Z" />
<glyph unicode="h" glyph-name="h" horiz-adv-x="1399" d="M1112 1148L1091 1105Q1100 1056 1122 1000L1144 1105Q1138 1128 1112 1148ZM185 958Q192 918 217 895L238 937L228 958H185ZM449 905H617L712 895L743 905L764 579L617 558L459 569L449 905ZM491 853L480
811L512 821Q508 842 491 853ZM101 547Q107 519 133 495Q129 525 101 547ZM996 505Q998 483 1017 463Q1016 486 996 505ZM975 379L954 284Q984 256 1028 242Q1009 311 975 379ZM228 358L259 211L312 242Q294 313 228 358ZM185 168Q189 125 217 95L228 168L196 158L185
168ZM228 1305L206 1221L0 1213L-1 1317L27 1390Q32 1369 49 1358Q74 1388 91 1432L70 1463L6 1484L364 1474V32L343 0L-4 11L6 116L2 904L96 1169Q242 1151 291 1127L280 1232Q263 1272 228 1305ZM937 1051L940 1236L837 1235L834 1122L937 1051ZM859 1484H1207L1217
1453L1207 1379V21H1217L1207 11L986 0L849 11L848 1058L962 1036L961 1250L911 1255L867 1276L923 1280L961 1277V1464L924 1436L854 1463L859 1484Z" />
<glyph unicode="i" glyph-name="i" horiz-adv-x="567" d="M159 1305Q168 1249 201 1190L211 1295L159 1305ZM74 1021L64 958L74 937L95 969Q116 978 127 1000L74 1021ZM253 758L243 716L274 726Q271 748 253 758ZM190 579Q193 565 211 558Q209 572 190 579ZM1
1484H274L359 1474V600Q357 545 338 484L296 537L304 615Q206 689 138 626Q228 614 296 495L327 400Q350 345 359 284V11L285 0Q268 2 264 21L274 74L253 116Q226 98 211 63L232 0H43L-9 11L1 84V1042Q2 1086 32 1127L1 1232V1369L-9 1453L1 1484Z" />
<glyph unicode="j" glyph-name="j" horiz-adv-x="856" d="M296 1484L526 1499L572 1363L526 1348L530 1258L654 1379V474L622 347L580 316L548 368Q530 409 485 432L527 316Q550 289 590 274L569 221L506 126L411 63Q357 41 296 32L190 0H85Q62 3 54 21Q106 54
106 126L43 200L1 126V316H-9L1 326L138 347Q193 365 243 400Q268 450 285 516V1337L296 1484ZM548 705Q552 692 569 684Q567 698 548 705ZM348 642Q355 552 433 495Q417 578 348 642Z" />
<glyph unicode="k" glyph-name="k" horiz-adv-x="1203" d="M789 1495H1147L1168 1484L821 821Q796 777 757 737V811Q790 826 821 853L799 926Q750 914 726 863Q678 838 631 800L694 663Q752 628 810 569Q842 499 863 411L873 337Q904 341 936 358Q977 350 1010
316L1179 0L894 11L863 0Q786 6 726 74L705 179L715 221Q659 256 610 305L389 705Q403 769 431 842L789 1495ZM873 1305Q843 1267 799 1232Q806 1209 831 1190L905 1284L873 1305ZM178 1084L189 958Q201 924 231 916L273 1032Q234 1069 178 1084ZM757 716L778 674Q760
690 757 716ZM262 611Q267 568 294 526L305 579L294 600L262 611ZM842 611L884 516Q856 556 842 611ZM220 421L210 368Q228 378 241 400Q239 414 220 421ZM789 421Q790 363 821 316L842 358Q823 393 789 421ZM0 1484H168L52 1316L105 1221Q142 1261 168 1316L231
1421V1484H326Q349 1422 357 1348V358L336 221L252 158L199 168L189 158L220 137L241 95L220 0H62L-11 11L0 84V579Q13 621 20 674L0 758L31 716L73 705Q80 676 105 653L178 684Q174 708 147 726Q76 739 126 779Q85 797 31 800Q9 856 0 916V1074Q0 1143 20 1221L0
1337V1453H-11L0 1484Z" />
<glyph unicode="l" glyph-name="l" horiz-adv-x="1117" d="M287 1449Q297 1407 330 1364Q322 1406 287 1449ZM287 1066Q295 1031 330 1012Q318 1043 287 1066ZM138 842L95 746L85 661H106V671Q143 697 170 746Q166 797 138 842ZM447 341H873L916 330V107L926 11L447
0Q451 45 489 85L543 107Q528 152 500 202L468 224Q466 211 447 202V341ZM85 320Q89 295 106 277Q105 300 85 320ZM63 192Q65 169 85 149Q84 172 63 192ZM447 170Q466 146 468 107Q451 134 447 170ZM137 1502H351L362 96L351 0H0L-11 11L0 43V128L21 213L63 224Q62
273 42 320Q34 285 0 266V1175L53 1164Q98 1088 127 1204Q172 1216 212 1247L112 1433L137 1502Z" />
<glyph unicode="m" glyph-name="m" horiz-adv-x="1564" d="M1147 1484H1200V1369Q1201 1317 1221 1274V1432Q1254 1483 1326 1484H1484Q1507 1428 1516 1358L1537 926H1547L1526 842L1547 821L1579 379L1558 242Q1577 203 1589 147L1600 0H1284Q1238 29 1221 95V242L1231
232L1242 179Q1263 193 1284 221Q1299 274 1326 326L1305 379L1263 347V295L1210 347L1189 758L1200 790Q1185 844 1179 916L1137 1453L1147 1484ZM94 1411Q144 1348 189 1253L421 769L389 74L379 0H21Q6 10 0 32Q1 134 21 253V442L31 484L42 705Q60 729 94 737Q75
782 63 842Q98 904 126 979L105 1000L63 1053L84 1179V1369L94 1411ZM431 1337Q439 1308 463 1284Q458 1313 431 1337ZM1263 1242Q1269 1214 1295 1190Q1289 1218 1263 1242ZM1284 1137Q1289 1116 1305 1105Q1301 1127 1284 1137ZM926 1116Q929 1102 947 1095Q945
1109 926 1116ZM705 1021Q708 1008 726 1000Q724 1014 705 1021ZM1021 895L1010 842L1042 874Q1040 888 1021 895ZM221 863L189 800L221 779L242 842Q239 856 221 863ZM1442 863L1410 769L1463 748L1484 832L1442 863ZM631 853Q636 811 663 779Q659 817 631 853ZM1253
611Q1274 575 1316 558Q1293 594 1253 611ZM263 516L252 442L284 432L294 495L263 516ZM673 474Q680 433 705 400L789 337Q779 377 758 411L673 474ZM305 421L284 326Q310 282 347 242L358 368Q339 397 305 421ZM863 411Q864 388 884 368Q883 391 863 411ZM179
358L168 316L200 305L210 347L179 358ZM747 295Q771 259 810 242Q786 278 747 295ZM137 232L126 147H147V158L168 221L137 232ZM326 200L316 147Q334 157 347 179Q345 193 326 200ZM1516 190V116L1547 168L1516 190ZM1400 137Q1406 108 1432 84Q1426 113 1400 137ZM158
1495H505L526 1463L600 1327Q608 1268 631 1232Q665 1181 695 1116L768 979L789 926L842 990L1042 1390Q1058 1427 1095 1463L1116 1011L1105 842L1126 800Q1118 752 1095 695L947 684Q976 733 989 790L958 800L905 748L989 400Q951 344 895 295L905 179L884 147L821
11L568 558Q546 626 505 695L442 832L410 884Q432 919 452 969Q448 1028 410 1084L358 1021L200 1358Q174 1420 158 1495Z" />
<glyph unicode="n" glyph-name="n" horiz-adv-x="1393" d="M6 1484Q100 1479 174 1411Q197 1439 206 1484H343L395 1474L322 1369L311 1327L438 1379L522 1253Q557 1188 617 1105L701 948Q744 886 785 800Q820 854 827 926V1400L838 1484H1175L1185 1442V11L838
0L448 684L438 916L417 779L332 884L164 1190Q120 1250 80 1337Q30 1401 6 1484ZM227 1369Q233 1340 259 1316Q251 1345 227 1369ZM-4 1274Q44 1214 80 1127L16 1116Q34 1045 101 1021Q161 991 206 916L290 769Q331 698 353 600L343 558L353 442V11L301 0H69L-15
11L-4 147V1200L-15 1232L-4 1242V1274ZM1080 1211Q1088 1182 1111 1158Q1106 1187 1080 1211ZM501 1105Q505 1085 522 1074Q518 1095 501 1105ZM448 1053L438 1011H459V1053H448ZM490 1021L480 969Q498 978 511 1000Q509 1014 490 1021ZM1027 1011Q1029 944 1059
874L1069 969Q1056 990 1027 1011ZM1090 821Q1093 779 1122 748Q1119 786 1090 821ZM669 632L648 516Q671 484 711 474L732 495L711 547Q703 593 669 632ZM174 611L122 516Q123 474 143 432Q154 483 195 526L206 600L174 611ZM964 600Q934 556 890 516Q916 473
953 432L1069 379L1143 358V390H1132L1101 516Q1066 476 1048 421L964 495L985 579Q983 593 964 600ZM732 484Q736 471 753 463Q750 474 732 484ZM901 190Q930 158 985 147L901 190ZM301 137Q308 116 332 116L301 137Z" />
<glyph unicode="o" glyph-name="o" horiz-adv-x="1626" d="M689 1508H849L871 1498Q907 1479 935 1444L967 1487L1224 1369L1266 1305L1213 1262L1031 1081Q971 1091 903 1134L742 1155L592 1123L496 1070V1123L443 1166L421 1113L453 1027L421 974L378 834L368
717L421 524Q402 473 368 428L282 332Q237 286 175 257L100 364Q84 423 47 481L15 642Q4 718 4 813L57 1059Q79 1044 100 1016Q131 1061 132 1123L100 1145L154 1230L239 1327L357 1412L485 1466L582 1434Q627 1473 689 1508ZM635 1295L624 1252L657 1241L667 1273L635
1295ZM849 1295Q852 1281 871 1273Q868 1287 849 1295ZM1395 1155L1459 1038L1491 877Q1502 802 1502 706L1480 546L1438 407L1363 289L1181 107L1052 53L903 21Q829 1 731 0L560 11Q490 31 421 64L453 118L421 128Q377 124 325 107L293 139Q266 170 250 214L293
246Q323 279 378 289Q427 317 443 385L475 449L528 417Q589 388 667 364H806L967 428L1063 503Q1093 563 1117 642L1138 802Q1123 871 1095 941L1063 1016L1106 1048L1202 1145L1341 1123L1395 1155ZM325 1134Q328 1120 346 1113Q344 1127 325 1134ZM218 909Q221
895 239 888Q237 902 218 909ZM1320 685L1309 567Q1324 569 1331 588L1352 663L1320 685ZM1373 449L1363 364L1395 385V439L1373 449ZM945 353L903 310Q907 292 924 278L881 225L849 235L852 195Q873 178 857 126L967 289V342L945 353Z" />
<glyph unicode="p" glyph-name="p" horiz-adv-x="1092" d="M-1 1495H337L347 290L294 268Q308 215 347 173V4H90L93 159L50 87L66 247Q22 311 83 374L-1 395V1040L20 1146L-1 1262V1453L-12 1463L-1 1495ZM443 1495Q523 1492 633 1474L770 1410Q821 1368 876 1305L929
1157L940 998L929 966Q916 888 887 808L802 691Q748 657 675 628L612 596L474 575L443 586L432 913L495 924Q546 968 580 1040Q552 1103 495 1157L432 1167V1474L443 1495ZM168 1358Q171 1344 189 1336Q186 1350 168 1358ZM220 1358Q224 1344 242 1336Q239 1350
220 1358ZM506 1220Q510 1199 527 1188Q523 1209 506 1220ZM675 1167Q678 1153 696 1146Q694 1160 675 1167ZM263 1135Q266 1122 284 1114Q282 1128 263 1135ZM770 1135L696 1051L717 998L760 1030L823 1114L770 1135ZM189 1040Q192 1027 210 1019Q208 1033 189
1040ZM612 776V681L633 755Q631 769 612 776ZM242 755L263 723Q259 744 242 755ZM294 364L273 321L316 332Q312 353 294 364ZM168 279Q171 265 189 258Q186 272 168 279Z" />
<glyph unicode="q" glyph-name="q" horiz-adv-x="1605" d="M690 1495H859L880 1484Q957 1475 1039 1453L1165 1389Q1214 1339 1250 1273Q1226 1263 1197 1241L1155 1315L1081 1326L1060 1252Q1100 1222 1134 1167L1039 1072Q978 1074 922 1114Q860 1128 795 1157L806
1209L785 1231L742 1188L668 1135L531 1083L436 987L383 839L372 660L425 522Q407 472 372 427L277 321Q234 282 171 268L97 385L45 522Q25 598 13 691V882L55 1030Q70 1064 97 1104L108 1051L97 1040L150 1019L140 1104Q143 1174 171 1241L277 1336Q328 1374 393
1410L531 1463L690 1495ZM1303 1241Q1335 1191 1356 1125Q1392 1114 1419 1083L1493 839L1483 543Q1466 495 1419 459L1187 691L1134 776L1113 913L1070 1009L1303 1241ZM965 1135Q968 1122 986 1114Q983 1128 965 1135ZM1282 935Q1286 914 1303 903Q1299 924 1282
935ZM1377 850L1356 797H1419Q1411 832 1377 850ZM1229 818Q1232 804 1250 797Q1248 811 1229 818ZM922 808L1039 723Q1082 680 1102 607Q1033 613 1017 681L986 723Q953 708 922 681L827 480L880 448L922 512Q956 509 986 480Q970 445 965 395Q967 371 986 364L1070
480L1208 533Q1261 497 1314 448L1504 258L1271 4Q1238 19 1208 46L1134 89L1091 67Q1021 41 933 25L605 4L425 57L309 131L245 184L468 438L594 385Q664 368 742 364L859 374L838 416L742 512L690 554L922 808ZM1250 691L1303 638L1314 691H1250ZM66 660L34 607H97Q96
641 66 660ZM319 215Q324 195 341 184Q337 205 319 215Z" />
<glyph unicode="r" glyph-name="r" horiz-adv-x="1132" d="M-3 1495L49 1463L197 1495H346Q353 1459 356 1410L346 935L356 839L335 744V702Q355 594 356 469V15L303 4H39L-14 15L-3 173V459L49 480L71 469L39 586L-3 607V744L7 776L-3 1453L-14 1463L-3 1495ZM441
1495L610 1474L642 1400Q663 1409 673 1432Q722 1431 779 1410Q814 1369 843 1315Q885 1274 917 1220L948 1072L938 903L895 765L821 649L790 617L864 406Q883 357 885 290L779 178L790 78Q760 127 716 173Q729 107 758 36Q716 13 663 4L642 46L546 311Q521 373
515 448L599 480L568 512Q516 546 472 596Q434 652 430 734V882L441 913Q504 933 568 966L589 1072L568 1104L462 1167Q439 1243 430 1326V1463L441 1495ZM250 1453L229 1389L261 1368L282 1432L250 1453ZM726 1326L716 1262L726 1241L779 1252Q768 1297 726 1326ZM832
1104L821 1072L811 1019L821 998V977H769Q785 937 821 913Q861 970 917 1019L927 1093L832 1104ZM71 1072Q82 1028 123 998Q113 1044 71 1072ZM599 913Q624 880 663 871Q640 900 599 913ZM92 818Q103 774 145 744Q134 791 92 818ZM568 649L557 607L589 617Q585
638 568 649ZM758 607H779V628H769L758 607ZM250 533Q254 519 271 512Q269 526 250 533ZM49 406L39 364L71 353L81 395L49 406ZM176 374L166 321L176 300V279L219 258Q215 317 176 374Z" />
<glyph unicode="s" glyph-name="s" horiz-adv-x="1156" d="M355 1495L450 1484V1209Q427 1148 365 1104L355 1019L365 998L386 966L799 829L894 744L968 628L989 321L979 290L894 184Q886 143 862 99L746 25L693 78L683 15L545 4L535 36V342L587 353Q616 410 619
480Q571 520 503 554L365 596Q303 622 249 670L238 723Q199 707 175 670L80 755Q78 803 59 861Q54 924 38 998L-4 1009V1146L38 1284L101 1368V1315Q126 1373 164 1432L249 1463L270 1410L355 1495ZM545 1495Q649 1491 767 1453Q846 1420 915 1347L947 1252L926
1146L947 1114L989 1146Q975 1106 936 1072Q842 1070 767 1030L651 998L640 1093Q548 1140 535 1252V1453L545 1495ZM355 1358Q358 1344 376 1336Q374 1350 355 1358ZM164 903Q169 882 186 871Q182 892 164 903ZM651 850Q654 836 672 829Q670 843 651 850ZM545
744Q550 720 577 702Q571 724 545 744ZM788 723Q800 692 831 670Q820 701 788 723ZM926 554Q926 503 947 448V533Q945 547 926 554ZM228 480Q318 474 365 385Q400 363 450 342V46L439 4Q346 5 238 36Q160 60 90 120Q38 183 6 279L-4 406H38L48 416L69 406Q135 446
228 480ZM725 469L661 406Q679 374 714 374Q761 385 788 427L725 469ZM905 427Q871 379 862 321Q897 366 905 427ZM545 279Q548 265 566 258Q563 268 545 279Z" />
<glyph unicode="t" glyph-name="t" horiz-adv-x="1152" d="M365 1505L503 1495L524 1452L471 1463L546 1410Q551 1451 577 1495L694 1505Q709 1497 736 1495Q739 1463 757 1431L779 1346Q815 1361 863 1368L895 1346L948 1187Q964 1195 969 1219L959 1378L1019
1336L1065 1177Q950 1145 821 1145H26L16 1410L5 1474L16 1495H334Q338 1474 355 1463L365 1505ZM37 1452Q40 1439 58 1431Q56 1445 37 1452ZM238 1230L217 1177H281Q270 1208 238 1230ZM715 1230Q718 1216 736 1209Q734 1223 715 1230ZM355 1060H715V594L705 562Q685
590 652 615L641 562L662 541Q710 478 715 382L705 1H355V446L397 414H471Q479 449 482 499L471 531H355V1060ZM556 308Q573 276 609 266Q591 294 556 308ZM493 276Q498 247 524 223Q523 258 493 276ZM546 234Q561 205 599 192Q578 214 546 234Z" />
<glyph unicode="u" glyph-name="u" horiz-adv-x="1366" d="M6 1495H154L185 1484L322 1495L353 1484Q363 1410 364 1316V949L322 938L364 854L374 507L437 392Q492 359 542 308V3H479L311 24L196 87L112 182L38 297L6 423L27 413Q84 409 143 381Q165 359 196 350L206
402L196 413L175 507L227 518Q211 580 164 644Q115 624 70 591Q40 559 -4 528V1127L27 1211L-4 1232Q20 1284 59 1327H154L185 1379Q207 1414 227 1463Q212 1471 185 1474Q115 1452 38 1442L6 1495ZM868 1411Q871 1397 889 1390Q887 1404 868 1411ZM269 1033Q272
1019 290 1012Q288 1026 269 1033ZM941 833L931 791L962 801Q959 822 941 833ZM920 392V318L941 371Q939 385 920 392ZM196 213Q205 175 238 150Q227 187 196 213ZM815 1495H1089L1173 1484V1295Q1169 1242 1152 1180L1173 1064V518L1120 297Q1099 265 1057 245Q1029
226 1026 192L1057 213L1068 192L962 98Q927 71 878 45L773 14L647 3Q624 59 616 119V255L637 350L731 392L773 486L794 602V1108H836Q882 1118 941 1106L1004 1085L1036 1243Q1028 1293 1004 1348Q981 1296 962 1232Q935 1195 889 1169Q879 1211 794 1379Q798
1432 815 1495Z" />
<glyph unicode="v" glyph-name="v" horiz-adv-x="1284" d="M-12 1491H303Q323 1482 334 1460L397 1491L460 1397L502 1281Q516 1232 544 1176L586 1061L607 1029L576 966L650 924L681 809L734 693Q747 638 755 567Q780 520 818 473L849 347L881 326Q876 288 860
252L776 21L639 0L439 420L397 536L345 630L208 966L156 1061L19 1386L-12 1491ZM1007 1491H1406L1395 1439L1196 966Q1158 912 1133 840L1070 725L1028 578L954 420Q911 472 881 546L818 714Q781 787 755 882L786 1029L860 1187Q918 1243 933 1334L1007 1491ZM156
1449Q162 1427 187 1407Q184 1435 156 1449ZM439 1355L429 1292L460 1281V1344L439 1355ZM198 1134Q230 1104 271 1092Q244 1122 198 1134ZM996 1103L1017 1050L1028 1092L996 1103ZM1070 977Q1073 963 1091 956Q1088 970 1070 977ZM776 914Q777 891 797 872Q793
896 776 914ZM996 882Q979 847 975 798H1028Q1026 842 996 882ZM586 809Q561 749 555 672H597Q620 719 628 777L586 809ZM975 756Q944 700 923 630L933 609L965 620L1028 651L1017 756H975Z" />
<glyph unicode="w" glyph-name="w" horiz-adv-x="1658" d="M9 1495H274Q357 1444 369 1325L550 201Q572 119 581 11L550 0H200L-22 1389L9 1495ZM793 1495Q891 1490 921 1389L984 1241Q998 1160 1037 1071L1302 276Q1299 264 1281 254H1218L1228 392Q1220 442
1196 477Q1157 404 1133 318L1196 170Q1276 154 1366 106L1398 0H1090Q1045 60 1005 138Q970 206 942 297L836 541L804 498L666 191Q609 215 603 286L518 753L550 838L571 774Q600 797 613 838Q590 887 581 944L645 1092Q689 1091 730 1071Q767 1072 804 1092L751
1135L656 1124L793 1495ZM1334 1495Q1356 1487 1366 1463Q1343 1467 1334 1495ZM1472 1495L1589 1474L1673 1495L1705 1484L1684 1357Q1655 1323 1610 1294L1620 1188Q1608 1138 1578 1081Q1550 1080 1525 1060H1578Q1602 1065 1631 1081L1514 424Q1507 374 1483
318L1493 265L1483 244V223Q1474 172 1451 117L1324 424L1292 530L1271 562Q1280 592 1302 626L1313 700L1292 721L1249 626L1218 732L1313 1347Q1322 1398 1377 1410Q1413 1389 1461 1389L1472 1495ZM168 1315Q182 1292 210 1283Q196 1305 168 1315ZM793 1304Q797
1290 815 1283Q812 1297 793 1304ZM815 1230Q819 1191 846 1156Q840 1193 815 1230ZM1461 1113Q1440 1065 1430 1007L1461 997Q1490 1025 1504 1050Q1490 1083 1461 1113ZM263 975L242 880L316 869L327 944L263 975ZM1377 859Q1376 806 1334 763Q1340 721 1377
679L1408 700Q1405 736 1387 774L1408 838L1377 859ZM740 827Q752 780 793 753Q782 799 740 827ZM200 785Q205 761 231 742Q225 765 200 785ZM571 636Q573 622 592 615Q590 629 571 636ZM1451 562L1461 520L1472 562H1451ZM327 530Q328 507 348 488Q347 511 327
530ZM952 509Q956 495 974 488Q971 502 952 509ZM1430 509Q1433 495 1451 488Q1448 502 1430 509ZM200 498Q207 435 274 424L200 498ZM931 445L921 414L952 392L963 435L931 445ZM422 382Q426 368 444 360Q441 375 422 382ZM486 350Q494 329 518 329L486 350ZM444
254Q445 196 475 148L497 244L444 254Z" />
<glyph unicode="x" glyph-name="x" horiz-adv-x="1102" d="M-63 1495Q8 1455 54 1368L107 1177L11 1325L-63 1495ZM107 1495H287Q344 1466 393 1421L520 1188L467 1071Q477 1019 531 1007L552 1113L584 1081L1177 0Q1125 4 1124 53Q1076 19 1008 0H828Q759 0 711
64L266 880L213 1007L117 1135L149 1177Q139 1247 107 1315V1495ZM764 1495H1061L1103 1389Q1096 1343 1071 1294L859 922Q838 878 796 848L637 1124Q614 1167 605 1219L764 1495ZM700 1272Q704 1259 722 1251Q719 1265 700 1272ZM838 1050Q841 1036 859 1028Q857
1043 838 1050ZM266 668Q305 626 340 562L456 350Q480 314 499 265L350 21L202 0H64V42Q104 73 117 127Q67 104 11 64L-10 85L-52 64L-31 117L266 668ZM287 541Q290 499 319 467L340 520L329 541H287ZM626 414L605 350Q646 334 700 329Q679 377 626 414ZM838 414Q844
385 870 360Q865 389 838 414ZM117 350Q137 298 202 297L287 233L297 307L244 329Q187 344 117 350ZM976 244L965 191L997 223Q995 237 976 244ZM775 127L764 74Q782 84 796 106Q793 120 775 127ZM-73 42L-52 0Q-71 15 -73 42Z" />
<glyph unicode="y" glyph-name="y" horiz-adv-x="1062" d="M-69 1495H249Q308 1483 355 1442L524 1135Q542 1089 577 1050L747 753V435L715 382Q696 392 684 414Q652 381 641 339Q693 319 747 286V127Q745 64 715 0H397Q357 42 355 117V594Q352 655 334 721L323
827Q277 856 238 901Q218 956 206 1028Q172 1047 143 1081L-69 1495ZM768 1495H843V1294L885 1325Q883 1394 864 1474L1012 1495Q1036 1431 1108 1410Q1136 1438 1171 1453L980 1113Q952 1064 906 1018L821 986L800 1018L790 1145L737 1113Q728 1138 705 1166Q671
1211 652 1272L768 1495ZM302 1431Q307 1388 344 1347L355 1421L302 1431ZM747 1368Q725 1320 715 1262Q720 1241 737 1230L758 1336L768 1368H747ZM609 1198Q652 1125 726 1071L768 1007L747 922L588 1135L609 1198ZM387 1177Q430 1141 493 1124L387 1177ZM334
1113L323 1060L355 1071Q354 1094 334 1113ZM843 965H885Q871 922 843 880L832 944L843 965ZM376 859Q379 845 397 838Q395 852 376 859ZM779 869H843L790 795L779 869Z" />
<glyph unicode="z" glyph-name="z" horiz-adv-x="1362" d="M12 1495H202Q197 1425 128 1400Q106 1370 96 1325L139 1336Q195 1337 224 1389L277 1495H711L679 1400L605 1304L584 1230Q543 1181 478 1145H12Q25 1175 54 1198L12 1336V1453L1 1463L12 1495ZM796
1495Q815 1445 817 1378L955 1421L966 1495L1072 1484L1178 1495Q1196 1484 1199 1463L626 424Q593 374 563 307L425 53Q363 2 277 0H-9L96 223Q136 280 171 350Q191 374 224 392L245 297L224 180L266 170L308 329Q308 389 277 445L255 509L308 583L796 1495ZM351
1431Q351 1376 372 1315L361 1251L414 1262Q412 1304 383 1336Q374 1385 351 1431ZM542 1431Q545 1418 563 1410Q560 1424 542 1431ZM998 1400Q1002 1361 1029 1325Q1025 1367 998 1400ZM786 1113L775 1071L807 1060L817 1092L786 1113ZM913 1113Q921 1084 945
1060Q939 1089 913 1113ZM679 954Q686 932 711 912Q707 936 679 954ZM595 891Q575 846 573 795Q604 757 658 742L648 827Q636 867 595 891ZM457 668Q460 654 478 647Q476 661 457 668ZM563 657L542 520L573 551L616 604L563 657ZM690 350H1199L1210 318L1199 297L1210
11L573 0L584 74Q557 49 542 11L510 0L499 11L690 350ZM1135 318Q1139 304 1157 297Q1154 311 1135 318ZM372 276Q374 253 393 233Q392 256 372 276ZM796 244Q757 212 732 159Q739 102 775 42L807 170Q828 179 839 201Q826 223 796 244ZM1061 127L1051 85L1104
74L1114 85Q1099 114 1061 127Z" />
<glyph unicode="{" glyph-name="braceleft" horiz-adv-x="684" />
<glyph unicode="|" glyph-name="bar" horiz-adv-x="532" />
<glyph unicode="}" glyph-name="braceright" horiz-adv-x="684" />
<glyph unicode="~" glyph-name="asciitilde" horiz-adv-x="1196" />
</font>
</defs>
</svg>
